<svg xmlns="http://www.w3.org/2000/svg" width="64" height="64"><path fill="none" stroke="#333" stroke-width="2" stroke-miterlimit="10" d="M21 40v5h22l.001-5.107C49 36.195 53 29.564 53 22c0-11.598-9.402-21-21-21s-21 9.402-21 21c0 7.565 3.998 14.304 10 18z" stroke-dasharray="142,144"/><path fill="none" stroke="#333" stroke-width="2" stroke-miterlimit="10" d="M28 45l-3-20M36 45l3-20" stroke-dasharray="21,23"/><path fill="none" stroke="#333" stroke-width="2" stroke-miterlimit="10" d="M25 26l4 3 3-3 3 3 4-3" stroke-dasharray="19,21"/><path fill="none" stroke="#333" stroke-width="2" stroke-miterlimit="10" d="M21 45h22v6H21z" stroke-dasharray="56,58"/><path fill="none" stroke="#333" stroke-width="2" stroke-miterlimit="10" d="M23 51h18v6H23z" stroke-dasharray="48,50"/><path fill="none" stroke="#333" stroke-width="2" stroke-miterlimit="10" d="M25 57h14v6H25z" stroke-dasharray="40,42"/></svg>
